<?xml version="1.0" encoding="UTF-8" standalone="no"?>
<!-- Created with Inkscape (http://www.inkscape.org/) -->

<svg
   xmlns:dc="http://purl.org/dc/elements/1.1/"
   xmlns:cc="http://creativecommons.org/ns#"
   xmlns:rdf="http://www.w3.org/1999/02/22-rdf-syntax-ns#"
   xmlns:svg="http://www.w3.org/2000/svg"
   xmlns="http://www.w3.org/2000/svg"
   xmlns:sodipodi="http://sodipodi.sourceforge.net/DTD/sodipodi-0.dtd"
   xmlns:inkscape="http://www.inkscape.org/namespaces/inkscape"
   version="1.1"
   id="svg3850"
   width="498.66666"
   height="106.66667"
   viewBox="0 0 498.66666 106.66667"
   sodipodi:docname="panda3d_logo.svg"
   inkscape:version="0.92.4 5da689c313, 2019-01-14">
  <metadata
     id="metadata3856">
    <rdf:RDF>
      <cc:Work
         rdf:about="">
        <dc:format>image/svg+xml</dc:format>
        <dc:type
           rdf:resource="http://purl.org/dc/dcmitype/StillImage" />
        <dc:title></dc:title>
      </cc:Work>
    </rdf:RDF>
  </metadata>
  <defs
     id="defs3854" />
  <sodipodi:namedview
     pagecolor="#ffffff"
     bordercolor="#666666"
     borderopacity="1"
     objecttolerance="10"
     gridtolerance="10"
     guidetolerance="10"
     inkscape:pageopacity="0"
     inkscape:pageshadow="2"
     inkscape:window-width="1900"
     inkscape:window-height="1025"
     id="namedview3852"
     showgrid="false"
     inkscape:zoom="3.4692514"
     inkscape:cx="249.33333"
     inkscape:cy="53.333336"
     inkscape:window-x="10"
     inkscape:window-y="45"
     inkscape:window-maximized="0"
     inkscape:current-layer="svg3850" />
  <path
     style="fill:#000000;stroke-width:1.33333337"
     d="M 37.571845,94.164263 14.62192,81.243162 14.571846,61.786456 14.521772,42.329749 9.8551058,39.816584 5.1884392,37.303417 l 0.00136,-7.363462 0.00136,-7.363461 6.5595238,-3.684115 6.559525,-3.684116 4.43912,2.592849 4.43912,2.592851 8,-4.738882 7.999999,-4.738881 8.890316,-5.0400532 8.890318,-5.040053 17.050589,9.8094562 17.05059,9.809457 4.220279,-2.608276 4.220279,-2.608278 6.17215,3.449681 6.17215,3.449678 v 7.851767 7.851768 l -3.96445,2.050095 -3.96445,2.050095 -0.36888,19.461261 -0.36889,19.461262 -23.18151,13.189553 -23.181509,13.189547 -0.151824,-0.0789 -0.151824,-0.0789 z m 19.616593,-2.22019 v -3.2991 l -4,-2.06848 -4,-2.06848 v -1.87896 -1.878959 l 1.300332,-3.420132 1.300332,-3.420133 h 9.262932 9.262932 l 1.628997,4.935913 1.628999,4.935911 -1.507756,0.50259 -1.507757,0.50258 -2.814278,2.27887 -2.814278,2.27886 0.463107,2.91356 0.463105,2.91355 17,-9.52942 16.999999,-9.52942 -0.0045,-22.101498 -0.0045,-22.101498 L 80.340766,20.91727 60.835397,9.9247118 41.678584,20.859372 22.521772,31.794034 v 22.293522 22.293522 l 16.333333,9.346775 16.333333,9.34677 1,0.0843 1,0.0843 z M 29.188439,60.68524 v -9.224587 l 4.644804,-2.870646 4.644805,-2.870649 2.573332,-3.27146 2.57333,-3.271461 4.781864,2.280312 4.781864,2.280312 v 6.109284 6.109286 l -6.103396,6.977099 -6.103397,6.977099 h -5.896602 -5.896604 z m 44.999999,1.568602 -6.333333,-7.61851 v -4.920673 -4.920673 l 4.886749,-3.020177 4.886748,-3.020176 3.446585,4.069064 3.446584,4.069064 4.333334,2.20994 4.333333,2.20994 v 9.299094 9.299094 l -6.333333,-0.01874 -6.333334,-0.01874 z m 338.333332,21.566441 -1.33334,-0.34386 -3.43725,-0.75112 -3.43724,-0.75112 -3.56276,-3.301845 -3.56275,-3.301845 v -3.396999 -3.396999 h 5.01716 5.01716 l 1.31618,3 1.31617,3 4.45805,0.427114 4.45806,0.427113 2.54194,-2.300431 2.54195,-2.300429 V 67.13175 63.433638 l -2.09524,-2.095238 -2.09524,-2.095239 h -5.23809 -5.2381 v -4 -4 h 3.70332 3.70334 l 2.96333,-2.075605 2.96335,-2.075606 v -4.324394 -4.324395 l -1.6,-1.6 -1.6,-1.6 h -3.63656 -3.63656 l -2.622,3.333333 -2.622,3.333334 h -4.80811 -4.80811 V 40.663294 39.41676 l 1.3001,-3.419521 1.3001,-3.419518 4.36656,-2.662296 4.36658,-2.662296 6.66666,-0.0029 6.66667,-0.0029 4.66667,2.331261 4.66666,2.331262 1.66612,5.103386 1.66612,5.103387 -0.77893,3.103508 -0.77892,3.103507 -3.16679,2.975032 -3.16677,2.975034 3.94625,3.686353 3.94626,3.686354 v 5.835045 5.835046 l -2.08094,2.970956 -2.08094,2.970957 -3.58572,1.845622 -3.58574,1.845624 -4.66666,0.60725 -4.66667,0.60726 -1.33333,-0.34387 z M 153.18844,55.09926 V 26.955358 l 15,0.502624 15,0.502624 4.31178,2.582695 4.31179,2.582693 2.02155,4.260089 2.02154,4.260089 v 3.596989 3.59699 l -2.02154,4.260088 -2.02155,4.260089 -4.2156,2.490218 -4.2156,2.490218 -9.76285,0.626542 -9.76286,0.626541 v 9.824658 9.824658 h -5.33333 -5.33333 z m 29.55484,-3.798543 2.44516,-3.019647 v -2.888946 -2.888947 l -2.0756,-2.963341 -2.07562,-2.963342 h -8.59105 -8.59107 v 8.444444 8.444446 l 1,1.017528 1,1.017529 7.22151,-0.59004 7.22151,-0.590038 z m 9.41116,30.361011 0.65005,-1.751899 9.04208,-26.333334 9.04208,-26.333334 h 5.48443 5.48442 l 9.64648,28.075736 9.64648,28.075736 -5.54405,-0.40907 -5.54405,-0.40907 -1.89932,-5.720427 -1.89934,-5.720429 -10.16554,0.387096 -10.16554,0.387096 -1.48513,5.333333 -1.48513,5.333331 -5.72899,0.41857 -5.72899,0.41856 z m 30.6873,-19.182978 0.7644,-0.764412 -3.36612,-10.011654 -3.36612,-10.011654 -1.04705,1.109399 -1.04705,1.109399 -2.64471,8.928752 -2.64471,8.928752 0.73792,0.737915 0.73791,0.737915 h 5.55556 5.55556 z m 23.68003,-7.312253 V 27.089832 l 5.64924,0.409998 5.64923,0.409997 10.6841,18.306319 10.6841,18.306318 1,0.02701 1,0.02702 V 45.909828 27.243161 h 5.33333 5.33333 v 28 28.000002 h -5.6694 -5.6694 l -9.99726,-16.95788 -9.99727,-16.957879 -0.43109,-1.708788 -0.43111,-1.708788 h -1.23556 -1.23557 v 18.666667 18.666668 h -5.33334 -5.33333 z m 54.66667,-0.07841 V 26.933006 l 13,0.563193 13,0.563194 4.22821,2.238432 4.22821,2.238432 3.10512,4.35345 3.10512,4.353454 0.43695,13.333334 0.43696,13.333333 -3.11439,4.666667 -3.11437,4.666667 -5.93843,3 -5.93842,3.000001 H 312.90592 301.18844 V 55.088085 Z m 23.80662,18.255071 3.67422,-1.900006 1.5929,-3.496066 1.59292,-3.496064 v -9.834963 -9.834962 l -3.45185,-4.102301 -3.45187,-4.102299 h -6.54813 -6.54815 v 19.333334 19.333334 h 4.73288 4.73288 l 3.6742,-1.900005 z m 18.86004,9.256488 v -0.64352 l 8.56254,-25.02315 8.56252,-25.023146 0.9397,-2.401744 0.93972,-2.401744 5.49776,0.401744 5.49776,0.401744 8.91575,26.000001 8.91573,26.000001 0.0843,1.666667 0.0842,1.666667 h -5.16005 -5.16006 l -1.69465,-6.052702 -1.69465,-6.0527 -10.03828,0.386033 -10.03829,0.386035 -1.88479,5.666666 -1.88479,5.666668 h -5.22221 -5.22223 z m 30.66667,-20.816165 v -1.459684 l -2.79653,-9.206983 -2.79654,-9.206983 -0.87013,0.0019 -0.87013,0.0019 -2.49738,8.331486 -2.49737,8.331485 -0.65813,2.333334 -0.65814,2.333333 h 6.82218 6.82217 v -1.459684 z m 68,-6.544167 V 26.933007 l 13.03276,0.523466 13.03276,0.523465 4.62937,2.7037 4.62937,2.703699 2.82323,4.189381 2.82323,4.18938 0.89389,6.738532 0.89391,6.738531 -0.89391,6.738531 -0.89389,6.738532 -2.8187,4.138873 -2.81869,4.138872 -3.72208,2.757632 -3.72207,2.757632 -13.9446,0.51619 -13.94458,0.51619 z m 24.02669,17.990051 3.89425,-2.013801 1.37287,-2.565211 1.37285,-2.565211 V 55.931271 45.777401 l -1.95068,-3.772212 -1.95069,-3.772211 -2.15836,-0.828243 -2.15836,-0.828241 h -5.89096 -5.89095 v 19.333334 19.333334 h 4.73288 4.73288 z"
     id="path3862"
     inkscape:connector-curvature="0" />
</svg>
